<svg xmlns="http://www.w3.org/2000/svg" width="376.89" height="150.764" viewBox="0 0 376.89 150.764">
  <g id="TRKLLOGO" transform="translate(-232.5 -222.256)">
    <g id="Group_1342" data-name="Group 1342">
      <path id="Path_1615" data-name="Path 1615" d="M253.31,326.13s30.14,18.81,76.57,5.93c19.01-5.28,53.72-16.55,78.86-2.23l-8.67,32.81s-26.34-13.45-72.83-.14c-19.73,5.65-41.15,8.52-83.39-1.34Z" fill="#254294" fill-rule="evenodd"/>
      <g id="Group_1341" data-name="Group 1341">
        <path id="Path_1616" data-name="Path 1616" d="M426.09,318.6h6.33l-11.86,47.85h25.47l-1.46,5.68H412.86Z" fill="#254294"/>
        <path id="Path_1617" data-name="Path 1617" d="M467.21,318.6h6.33L460.3,372.13h-6.33Z" fill="#254294"/>
        <path id="Path_1618" data-name="Path 1618" d="M530.88,318.6l-13.47,54.42h-2.27l-23.85-41.85-9.99,40.96h-6.33l13.47-54.42h2.27l23.84,41.93,10-41.04Z" fill="#254294"/>
        <path id="Path_1619" data-name="Path 1619" d="M545.64,318.6h34.31l-1.46,5.68H550.5l-4.17,16.38h21.49l-1.38,5.68H545.03l-4.93,20.11h28.95l-1.38,5.68H532.4Z" fill="#254294"/>
      </g>
    </g>
    <g id="Group_1343" data-name="Group 1343">
      <path id="Path_1620" data-name="Path 1620" d="M289.97,223.67H237.29l-4.79,16.5h19.3l-16.64,63.34h22.35l16.65-63.34h11.02Z" fill="#e52629" fill-rule="evenodd"/>
      <path id="Path_1621" data-name="Path 1621" d="M341.61,284.35c4.9-16.45,15.92-60.62,15.92-60.62H335.17s-8.96,37.62-13.62,54.08c-4.24,14.95-13.47,12.4-13.47,12.4-9.26-1.14-5.73-12.24-5.73-12.24,4.36-16.6,15.49-54.24,15.49-54.24H295.48s-11.1,37.53-15.45,54.08c0,0-7.83,25.31,21.66,27.83,0,0,31.9,5.65,39.92-21.29" fill="#e52629" fill-rule="evenodd"/>
      <path id="Path_1622" data-name="Path 1622" d="M431.56,260.4l20.75,43.11H429.96L409.2,260.4l30.34-36.73h24.48Z" fill="#e52629" fill-rule="evenodd"/>
      <path id="Path_1623" data-name="Path 1623" d="M380.94,273.56c6.1,12.68,14.42,29.95,14.42,29.95H373L352.24,260.4h21.29s10.89.15,11.71-10.65c0,0,1.59-8.4-7.98-9.58H359.47l4.03-16.5h18.54s26.82-2.26,26.08,25.55c.02,0-.99,21.6-27.18,24.34" fill="#e52629" fill-rule="evenodd"/>
      <path id="Path_1624" data-name="Path 1624" d="M578.18,264.14c5.21-19.92,10.45-39.93,10.45-39.93h20.76l-20.76,79.3H567.87L551.16,261.6c-5.38,20.55-10.97,41.91-10.97,41.91H517.84l20.76-79.3h22.35Z" fill="#e52629" fill-rule="evenodd"/>
      <path id="Path_1625" data-name="Path 1625" d="M503.55,222.76s-32.47-5.76-40.63,21.67c-3.33,11.18-6.15,21.53-7.65,27.17-.64,1.95-1.22,3.86-1.7,5.7,0,0-7.97,25.76,22.04,28.33,0,0,32.47,5.76,40.63-21.67.61-2.06,1.22-4.17,1.81-6.29,1.03-3.32,3.99-13.06,7.54-26.58C525.59,251.09,533.56,225.33,503.55,222.76Zm-21.44,67.16c-9.42-1.16-5.83-12.46-5.83-12.46,1.94-7.38,4.2-15.86,6.13-23.08.32-1.14.63-2.24.93-3.29,4.31-15.21,13.71-12.62,13.71-12.62,9.42,1.16,5.83,12.46,5.83,12.46-1.7,6.46-3.98,15.02-6.15,23.15-.31,1.08-.61,2.15-.92,3.22C491.51,292.51,482.11,289.92,482.11,289.92Z" fill="#e52629" fill-rule="evenodd"/>
    </g>
  </g>
</svg>
